<svg xmlns="http://www.w3.org/2000/svg" viewBox="0 0 960 400" width="960" height="400" font-family="Inter, 'Segoe UI', Helvetica, Arial, sans-serif">
<rect width="960" height="400" fill="#ffffff"/>
<defs><marker id="mg" viewBox="0 0 10 10" refX="8" refY="5" markerWidth="6" markerHeight="6" orient="auto"><path d="M0,0 L10,5 L0,10 z" fill="#6f7686"/></marker><marker id="mb" viewBox="0 0 10 10" refX="8" refY="5" markerWidth="6" markerHeight="6" orient="auto"><path d="M0,0 L10,5 L0,10 z" fill="#2a6fd6"/></marker><marker id="mp" viewBox="0 0 10 10" refX="8" refY="5" markerWidth="6" markerHeight="6" orient="auto"><path d="M0,0 L10,5 L0,10 z" fill="#d6588a"/></marker><marker id="mgr" viewBox="0 0 10 10" refX="8" refY="5" markerWidth="6" markerHeight="6" orient="auto"><path d="M0,0 L10,5 L0,10 z" fill="#3a9a5b"/></marker><marker id="mpu" viewBox="0 0 10 10" refX="8" refY="5" markerWidth="6" markerHeight="6" orient="auto"><path d="M0,0 L10,5 L0,10 z" fill="#7b5cc4"/></marker><marker id="mgy" viewBox="0 0 10 10" refX="8" refY="5" markerWidth="6" markerHeight="6" orient="auto"><path d="M0,0 L10,5 L0,10 z" fill="#bdbdbd"/></marker><marker id="my" viewBox="0 0 10 10" refX="8" refY="5" markerWidth="6" markerHeight="6" orient="auto"><path d="M0,0 L10,5 L0,10 z" fill="#8a8f9c"/></marker></defs>
<text x="30" y="40" font-size="17" fill="#1d2230" font-weight="700" text-anchor="start">Alleen glutamine remmen</text>
<text x="30" y="62" font-size="14" fill="#6f7686" font-weight="400" text-anchor="start">de tumor zet meer 'rem-eiwitten' op zijn oppervlak</text>
<path d="M30,95 C180,105 180,325 30,335 Z" fill="#fdf1f3" stroke="#d98a98" stroke-width="3"/>
<text x="48" y="221" font-size="14" fill="#b06a78" font-weight="700" text-anchor="start">tumorcel</text>
<line x1="121.0" y1="155" x2="137.0" y2="155" stroke="#c9783d" stroke-width="3.5" stroke-linecap="round"/>
<line x1="137.0" y1="155" x2="147.0" y2="147" stroke="#c9783d" stroke-width="3.5" stroke-linecap="round"/>
<line x1="137.0" y1="155" x2="147.0" y2="163" stroke="#c9783d" stroke-width="3.5" stroke-linecap="round"/>
<line x1="135.0" y1="195" x2="151.0" y2="195" stroke="#c9783d" stroke-width="3.5" stroke-linecap="round"/>
<line x1="151.0" y1="195" x2="161.0" y2="187" stroke="#c9783d" stroke-width="3.5" stroke-linecap="round"/>
<line x1="151.0" y1="195" x2="161.0" y2="203" stroke="#c9783d" stroke-width="3.5" stroke-linecap="round"/>
<line x1="135.0" y1="235" x2="151.0" y2="235" stroke="#c9783d" stroke-width="3.5" stroke-linecap="round"/>
<line x1="151.0" y1="235" x2="161.0" y2="227" stroke="#c9783d" stroke-width="3.5" stroke-linecap="round"/>
<line x1="151.0" y1="235" x2="161.0" y2="243" stroke="#c9783d" stroke-width="3.5" stroke-linecap="round"/>
<line x1="121.0" y1="275" x2="137.0" y2="275" stroke="#c9783d" stroke-width="3.5" stroke-linecap="round"/>
<line x1="137.0" y1="275" x2="147.0" y2="267" stroke="#c9783d" stroke-width="3.5" stroke-linecap="round"/>
<line x1="137.0" y1="275" x2="147.0" y2="283" stroke="#c9783d" stroke-width="3.5" stroke-linecap="round"/>
<line x1="376.0" y1="215.0" x2="384.0" y2="215.0" stroke="#2a6fd6" stroke-width="2.5" stroke-linecap="round"/>
<line x1="362.5" y1="247.5" x2="368.2" y2="253.2" stroke="#2a6fd6" stroke-width="2.5" stroke-linecap="round"/>
<line x1="330.0" y1="261.0" x2="330.0" y2="269.0" stroke="#2a6fd6" stroke-width="2.5" stroke-linecap="round"/>
<line x1="297.5" y1="247.5" x2="291.8" y2="253.2" stroke="#2a6fd6" stroke-width="2.5" stroke-linecap="round"/>
<line x1="284.0" y1="215.0" x2="276.0" y2="215.0" stroke="#2a6fd6" stroke-width="2.5" stroke-linecap="round"/>
<line x1="297.5" y1="182.5" x2="291.8" y2="176.8" stroke="#2a6fd6" stroke-width="2.5" stroke-linecap="round"/>
<line x1="330.0" y1="169.0" x2="330.0" y2="161.0" stroke="#2a6fd6" stroke-width="2.5" stroke-linecap="round"/>
<line x1="362.5" y1="182.5" x2="368.2" y2="176.8" stroke="#2a6fd6" stroke-width="2.5" stroke-linecap="round"/>
<circle cx="330" cy="215" r="46" fill="#e7effb" stroke="#2a6fd6" stroke-width="2.5"/>
<text x="330" y="221" font-size="15" fill="#1f56a8" font-weight="700" text-anchor="middle">T-cel</text>
<line x1="180" y1="195" x2="278" y2="205" stroke="#2a6fd6" stroke-width="3" stroke-linecap="round"/>
<line x1="180" y1="235" x2="278" y2="225" stroke="#2a6fd6" stroke-width="3" stroke-linecap="round"/>
<rect x="318" y="279" width="8" height="24" rx="2" fill="#c0392b"/><rect x="334" y="279" width="8" height="24" rx="2" fill="#c0392b"/>
<text x="330" y="327" font-size="14" fill="#c0392b" font-weight="700" text-anchor="middle">T-cel geremd</text>
<line x1="30" y1="368" x2="46" y2="368" stroke="#c9783d" stroke-width="3.5" stroke-linecap="round"/>
<line x1="46" y1="368" x2="56" y2="360" stroke="#c9783d" stroke-width="3.5" stroke-linecap="round"/>
<line x1="46" y1="368" x2="56" y2="376" stroke="#c9783d" stroke-width="3.5" stroke-linecap="round"/>
<text x="64" y="373" font-size="13" fill="#4a5163" font-weight="600" text-anchor="start">rem-eiwit</text>
<text x="500" y="40" font-size="17" fill="#1d2230" font-weight="700" text-anchor="start">+ immuuntherapie</text>
<text x="500" y="62" font-size="14" fill="#6f7686" font-weight="400" text-anchor="start">een medicijn blokkeert de rem</text>
<path d="M500,95 C650,105 650,325 500,335 Z" fill="#fdf1f3" stroke="#d98a98" stroke-width="3" stroke-dasharray="10 6"/>
<text x="518" y="221" font-size="14" fill="#b06a78" font-weight="700" text-anchor="start">tumorcel</text>
<line x1="591.0" y1="155" x2="607.0" y2="155" stroke="#c9783d" stroke-width="3.5" stroke-linecap="round"/>
<line x1="607.0" y1="155" x2="617.0" y2="147" stroke="#c9783d" stroke-width="3.5" stroke-linecap="round"/>
<line x1="607.0" y1="155" x2="617.0" y2="163" stroke="#c9783d" stroke-width="3.5" stroke-linecap="round"/>
<rect x="619.0" y="144" width="12" height="22" rx="4" fill="#3a9a5b"/>
<line x1="605.0" y1="195" x2="621.0" y2="195" stroke="#c9783d" stroke-width="3.5" stroke-linecap="round"/>
<line x1="621.0" y1="195" x2="631.0" y2="187" stroke="#c9783d" stroke-width="3.5" stroke-linecap="round"/>
<line x1="621.0" y1="195" x2="631.0" y2="203" stroke="#c9783d" stroke-width="3.5" stroke-linecap="round"/>
<rect x="633.0" y="184" width="12" height="22" rx="4" fill="#3a9a5b"/>
<line x1="605.0" y1="235" x2="621.0" y2="235" stroke="#c9783d" stroke-width="3.5" stroke-linecap="round"/>
<line x1="621.0" y1="235" x2="631.0" y2="227" stroke="#c9783d" stroke-width="3.5" stroke-linecap="round"/>
<line x1="621.0" y1="235" x2="631.0" y2="243" stroke="#c9783d" stroke-width="3.5" stroke-linecap="round"/>
<rect x="633.0" y="224" width="12" height="22" rx="4" fill="#3a9a5b"/>
<line x1="591.0" y1="275" x2="607.0" y2="275" stroke="#c9783d" stroke-width="3.5" stroke-linecap="round"/>
<line x1="607.0" y1="275" x2="617.0" y2="267" stroke="#c9783d" stroke-width="3.5" stroke-linecap="round"/>
<line x1="607.0" y1="275" x2="617.0" y2="283" stroke="#c9783d" stroke-width="3.5" stroke-linecap="round"/>
<rect x="619.0" y="264" width="12" height="22" rx="4" fill="#3a9a5b"/>
<line x1="846.0" y1="215.0" x2="854.0" y2="215.0" stroke="#2a6fd6" stroke-width="2.5" stroke-linecap="round"/>
<line x1="832.5" y1="247.5" x2="838.2" y2="253.2" stroke="#2a6fd6" stroke-width="2.5" stroke-linecap="round"/>
<line x1="800.0" y1="261.0" x2="800.0" y2="269.0" stroke="#2a6fd6" stroke-width="2.5" stroke-linecap="round"/>
<line x1="767.5" y1="247.5" x2="761.8" y2="253.2" stroke="#2a6fd6" stroke-width="2.5" stroke-linecap="round"/>
<line x1="754.0" y1="215.0" x2="746.0" y2="215.0" stroke="#2a6fd6" stroke-width="2.5" stroke-linecap="round"/>
<line x1="767.5" y1="182.5" x2="761.8" y2="176.8" stroke="#2a6fd6" stroke-width="2.5" stroke-linecap="round"/>
<line x1="800.0" y1="169.0" x2="800.0" y2="161.0" stroke="#2a6fd6" stroke-width="2.5" stroke-linecap="round"/>
<line x1="832.5" y1="182.5" x2="838.2" y2="176.8" stroke="#2a6fd6" stroke-width="2.5" stroke-linecap="round"/>
<circle cx="800" cy="215" r="46" fill="#e7effb" stroke="#2a6fd6" stroke-width="2.5"/>
<text x="800" y="221" font-size="15" fill="#1f56a8" font-weight="700" text-anchor="middle">T-cel</text>
<path d="M744,209 L690,197 L700,217 L650,211" fill="none" stroke="#2a6fd6" stroke-width="3.5" stroke-linejoin="round" marker-end="url(#mg)"/>
<text x="800" y="299" font-size="14" fill="#1f56a8" font-weight="700" text-anchor="middle">T-cel valt aan</text>
<line x1="500" y1="368" x2="516" y2="368" stroke="#c9783d" stroke-width="3.5" stroke-linecap="round"/>
<line x1="516" y1="368" x2="526" y2="360" stroke="#c9783d" stroke-width="3.5" stroke-linecap="round"/>
<line x1="516" y1="368" x2="526" y2="376" stroke="#c9783d" stroke-width="3.5" stroke-linecap="round"/>
<text x="534" y="373" font-size="13" fill="#4a5163" font-weight="600" text-anchor="start">rem-eiwit</text>
<rect x="650" y="357" width="12" height="22" rx="4" fill="#3a9a5b"/>
<text x="670" y="373" font-size="13" fill="#4a5163" font-weight="600" text-anchor="start">medicijn</text>
<line x1="470" y1="30" x2="470" y2="390" stroke="#e4e1d8" stroke-width="1.5"/>
</svg>
