<svg xmlns="http://www.w3.org/2000/svg" viewBox="0 0 970 400" width="970" height="400" font-family="Inter, 'Segoe UI', Helvetica, Arial, sans-serif">
<rect width="970" height="400" fill="#ffffff"/>
<defs><marker id="a" viewBox="0 0 10 10" refX="8" refY="5" markerWidth="7" markerHeight="7" orient="auto"><path d="M0,0 L10,5 L0,10 z" fill="#6f7686"/></marker><marker id="r" viewBox="0 0 10 10" refX="8" refY="5" markerWidth="7" markerHeight="7" orient="auto"><path d="M0,0 L10,5 L0,10 z" fill="#c9783d"/></marker></defs>
<text x="40" y="52" font-size="17" fill="#1d2230" font-weight="700" text-anchor="start" >New players</text>
<text x="40" y="74" font-size="14" fill="#6f7686" font-weight="400" text-anchor="start" >first 5 days of play</text>
<text x="400" y="52" font-size="17" fill="#1d2230" font-weight="700" text-anchor="start" >Model reads behaviour</text>
<text x="400" y="74" font-size="14" fill="#6f7686" font-weight="400" text-anchor="start" >from 153,929 games played</text>
<text x="850" y="52" font-size="17" fill="#1d2230" font-weight="700" text-anchor="middle" >Finding</text>
<text x="850" y="74" font-size="14" fill="#6f7686" font-weight="400" text-anchor="middle" >who is most at risk?</text>
<circle cx="70" cy="126.0" r="9.0" fill="#c9783d"/><path d="M55.0,156.0 C55.0,138.0 85.0,138.0 85.0,156.0 Z" fill="#c9783d"/>
<circle cx="142" cy="126.0" r="9.0" fill="#c9783d"/><path d="M127.0,156.0 C127.0,138.0 157.0,138.0 157.0,156.0 Z" fill="#c9783d"/>
<circle cx="214" cy="126.0" r="9.0" fill="#c9783d"/><path d="M199.0,156.0 C199.0,138.0 229.0,138.0 229.0,156.0 Z" fill="#c9783d"/>
<circle cx="286" cy="126.0" r="9.0" fill="#c9783d"/><path d="M271.0,156.0 C271.0,138.0 301.0,138.0 301.0,156.0 Z" fill="#c9783d"/>
<circle cx="70" cy="200.0" r="9.0" fill="#c9783d"/><path d="M55.0,230.0 C55.0,212.0 85.0,212.0 85.0,230.0 Z" fill="#c9783d"/>
<circle cx="142" cy="200.0" r="9.0" fill="#c9783d"/><path d="M127.0,230.0 C127.0,212.0 157.0,212.0 157.0,230.0 Z" fill="#c9783d"/>
<circle cx="214" cy="200.0" r="9.0" fill="#cfcfcf"/><path d="M199.0,230.0 C199.0,212.0 229.0,212.0 229.0,230.0 Z" fill="#cfcfcf"/>
<circle cx="286" cy="200.0" r="9.0" fill="#c9783d"/><path d="M271.0,230.0 C271.0,212.0 301.0,212.0 301.0,230.0 Z" fill="#c9783d"/>
<circle cx="70" cy="274.0" r="9.0" fill="#c9783d"/><path d="M55.0,304.0 C55.0,286.0 85.0,286.0 85.0,304.0 Z" fill="#c9783d"/>
<circle cx="142" cy="274.0" r="9.0" fill="#c9783d"/><path d="M127.0,304.0 C127.0,286.0 157.0,286.0 157.0,304.0 Z" fill="#c9783d"/>
<circle cx="214" cy="274.0" r="9.0" fill="#c9783d"/><path d="M199.0,304.0 C199.0,286.0 229.0,286.0 229.0,304.0 Z" fill="#c9783d"/>
<circle cx="286" cy="274.0" r="9.0" fill="#c9783d"/><path d="M271.0,304.0 C271.0,286.0 301.0,286.0 301.0,304.0 Z" fill="#c9783d"/>
<text x="40" y="372" font-size="15" fill="#c9783d" font-weight="700" text-anchor="start" >11 in 12 quit</text>
<rect x="400" y="130" width="150" height="38" rx="19" fill="#faf9f6" stroke="#e4e1d8" stroke-width="1.5"/>
<text x="475" y="155" font-size="15" fill="#4a5163" font-weight="600" text-anchor="middle" >play time</text>
<path d="M552,149 C585,149 585,224 612,224" fill="none" stroke="#e4e1d8" stroke-width="1.8" marker-end="url(#a)"/>
<rect x="400" y="186" width="150" height="38" rx="19" fill="#faf9f6" stroke="#e4e1d8" stroke-width="1.5"/>
<text x="475" y="211" font-size="15" fill="#4a5163" font-weight="600" text-anchor="middle" >games played</text>
<path d="M552,205 C585,205 585,224 612,224" fill="none" stroke="#e4e1d8" stroke-width="1.8" marker-end="url(#a)"/>
<rect x="400" y="242" width="150" height="38" rx="19" fill="#faf9f6" stroke="#e4e1d8" stroke-width="1.5"/>
<text x="475" y="267" font-size="15" fill="#4a5163" font-weight="600" text-anchor="middle" >time between</text>
<path d="M552,261 C585,261 585,224 612,224" fill="none" stroke="#e4e1d8" stroke-width="1.8" marker-end="url(#a)"/>
<rect x="618" y="174" width="120" height="100" rx="14" fill="#1d2230"/>
<g stroke="#ffffff" stroke-width="2" fill="none"><line x1="678" y1="196" x2="656" y2="222"/><line x1="678" y1="196" x2="700" y2="222"/><line x1="656" y1="222" x2="646" y2="244"/><line x1="656" y1="222" x2="666" y2="244"/></g><circle cx="678" cy="196" r="5" fill="#ffffff"/><circle cx="656" cy="222" r="5" fill="#ffffff"/><circle cx="700" cy="222" r="5" fill="#c9783d"/><circle cx="646" cy="244" r="4" fill="#9aa3b5"/><circle cx="666" cy="244" r="4" fill="#9aa3b5"/>
<text x="678" y="266" font-size="13" fill="#c9cdd8" font-weight="600" text-anchor="middle" >XGBoost</text>
<line x1="742" y1="224" x2="764" y2="224" stroke="#6f7686" stroke-width="1.8" marker-end="url(#a)"/>
<circle cx="850" cy="224" r="78" fill="#e7effb" stroke="#2a6fd6" stroke-width="2.5"/>
<text x="850" y="230" font-size="36" fill="#1f56a8" font-weight="700" text-anchor="middle" >8 in 10</text>
<text x="850" y="256" font-size="14" fill="#1f56a8" font-weight="600" text-anchor="middle" >ranked right</text>
<text x="850" y="340" font-size="14" fill="#6f7686" font-weight="500" text-anchor="middle" >guessing: 5 in 10</text>
</svg>
