<svg xmlns="http://www.w3.org/2000/svg" viewBox="0 0 960 540" width="960" height="540" font-family="Inter, 'Segoe UI', Helvetica, Arial, sans-serif">
<rect width="960" height="540" fill="#ffffff"/>
<defs><marker id="a" viewBox="0 0 10 10" refX="8" refY="5" markerWidth="7" markerHeight="7" orient="auto"><path d="M0,0 L10,5 L0,10 z" fill="#6f7686"/></marker></defs>
<line x1="304" y1="147.0" x2="330" y2="147.0" stroke="#6f7686" stroke-width="2" marker-end="url(#a)"/>
<line x1="616" y1="147.0" x2="642" y2="147.0" stroke="#6f7686" stroke-width="2" marker-end="url(#a)"/>
<line x1="304" y1="419.0" x2="330" y2="419.0" stroke="#6f7686" stroke-width="2" marker-end="url(#a)"/>
<line x1="616" y1="419.0" x2="642" y2="419.0" stroke="#6f7686" stroke-width="2" marker-end="url(#a)"/>
<path d="M786.0,258 V283 H162.0 V306" fill="none" stroke="#6f7686" stroke-width="2" stroke-linejoin="round" marker-end="url(#a)"/>
<rect x="24" y="40" width="276" height="214" rx="16" fill="#f6e7da" stroke="#c9783d" stroke-width="1.5"/>
<circle cx="54" cy="74" r="15" fill="none" stroke="#c9783d" stroke-width="2"/>
<text x="54" y="79.5" font-size="15" font-weight="700" fill="#c9783d" text-anchor="middle">1</text>
<text x="80" y="80" font-size="21" font-weight="700" fill="#1d2230">Raw data</text>
<text x="46" y="118" font-size="17" fill="#4a5163">153,929 games played:</text>
<text x="46" y="142" font-size="17" fill="#4a5163">timestamp, score and</text>
<text x="46" y="166" font-size="17" fill="#4a5163">device ID</text>
<rect x="336" y="40" width="276" height="214" rx="16" fill="#faf9f6" stroke="#e4e1d8" stroke-width="1.5"/>
<circle cx="366" cy="74" r="15" fill="none" stroke="#6f7686" stroke-width="2"/>
<text x="366" y="79.5" font-size="15" font-weight="700" fill="#6f7686" text-anchor="middle">2</text>
<text x="392" y="80" font-size="21" font-weight="700" fill="#1d2230">Labelling churn</text>
<text x="358" y="118" font-size="17" fill="#4a5163">Observe 5 days, then check</text>
<text x="358" y="142" font-size="17" fill="#4a5163">12 days for a return</text>
<text x="358" y="172" font-size="17" fill="#4a5163">25,956 players</text>
<rect x="648" y="40" width="276" height="214" rx="16" fill="#faf9f6" stroke="#e4e1d8" stroke-width="1.5"/>
<circle cx="678" cy="74" r="15" fill="none" stroke="#6f7686" stroke-width="2"/>
<text x="678" y="79.5" font-size="15" font-weight="700" fill="#6f7686" text-anchor="middle">3</text>
<text x="704" y="80" font-size="21" font-weight="700" fill="#1d2230">Features</text>
<text x="670" y="118" font-size="17" fill="#4a5163">13 behavioural features</text>
<text x="670" y="142" font-size="17" fill="#4a5163">built, 8 kept after effect</text>
<text x="670" y="166" font-size="17" fill="#4a5163">size and correlation</text>
<rect x="24" y="312" width="276" height="214" rx="16" fill="#e7effb" stroke="#2a6fd6" stroke-width="1.5"/>
<circle cx="54" cy="346" r="15" fill="none" stroke="#2a6fd6" stroke-width="2"/>
<text x="54" y="351.5" font-size="15" font-weight="700" fill="#2a6fd6" text-anchor="middle">4</text>
<text x="80" y="352" font-size="21" font-weight="700" fill="#1d2230">Models</text>
<text x="46" y="390" font-size="17" fill="#4a5163">Logistic regression,</text>
<text x="46" y="414" font-size="17" fill="#4a5163">Random Forest and XGBoost</text>
<rect x="336" y="312" width="276" height="214" rx="16" fill="#e7effb" stroke="#2a6fd6" stroke-width="1.5"/>
<circle cx="366" cy="346" r="15" fill="none" stroke="#2a6fd6" stroke-width="2"/>
<text x="366" y="351.5" font-size="15" font-weight="700" fill="#2a6fd6" text-anchor="middle">5</text>
<text x="392" y="352" font-size="21" font-weight="700" fill="#1d2230">Tuning</text>
<text x="358" y="390" font-size="17" fill="#4a5163">Random search, then grid</text>
<text x="358" y="414" font-size="17" fill="#4a5163">search</text>
<text x="358" y="444" font-size="17" fill="#4a5163">Stratified 5-fold CV</text>
<rect x="648" y="312" width="276" height="214" rx="16" fill="#1d2230" stroke="#1d2230" stroke-width="1.5"/>
<circle cx="678" cy="346" r="15" fill="none" stroke="#ffffff" stroke-width="2"/>
<text x="678" y="351.5" font-size="15" font-weight="700" fill="#ffffff" text-anchor="middle">6</text>
<text x="704" y="352" font-size="21" font-weight="700" fill="#ffffff">Evaluation</text>
<text x="670" y="390" font-size="17" fill="#c9cdd8">PR-AUC and ROC-AUC,</text>
<text x="670" y="414" font-size="17" fill="#c9cdd8">repeated with another seed</text>
</svg>
