<svg xmlns="http://www.w3.org/2000/svg" viewBox="0 0 970 400" width="970" height="400" font-family="Inter, 'Segoe UI', Helvetica, Arial, sans-serif">
<rect width="970" height="400" fill="#ffffff"/>
<defs><marker id="arr" viewBox="0 0 10 10" refX="8" refY="5" markerWidth="7" markerHeight="7" orient="auto-start-reverse"><path d="M0,0 L10,5 L0,10 z" fill="#6f7686"/></marker></defs>
<text x="50" y="52" font-size="15" fill="#1f56a8" font-weight="600" text-anchor="start" >Monthly data</text>
<text x="50" y="72" font-size="13" fill="#6f7686" font-weight="400" text-anchor="start" >134 series (FRED-MD)</text>
<text x="50" y="232" font-size="15" fill="#c9783d" font-weight="600" text-anchor="start" >Quarterly data</text>
<text x="50" y="252" font-size="13" fill="#6f7686" font-weight="400" text-anchor="start" >248 series (FRED-QD), incl. GDP</text>
<rect x="50" y="137" width="22" height="53" rx="4" fill="#2a6fd6" opacity="0.55"/>
<rect x="78" y="133" width="22" height="57" rx="4" fill="#2a6fd6" opacity="0.7000000000000001"/>
<rect x="106" y="146" width="22" height="44" rx="4" fill="#2a6fd6" opacity="0.8500000000000001"/>
<rect x="50" y="273" width="78" height="57" rx="5" fill="#c9783d" opacity=".85"/>
<text x="89.0" y="352" font-size="13" fill="#6f7686" font-weight="500" text-anchor="middle" >Q1</text>
<rect x="152" y="127" width="22" height="63" rx="4" fill="#2a6fd6" opacity="0.55"/>
<rect x="180" y="122" width="22" height="68" rx="4" fill="#2a6fd6" opacity="0.7000000000000001"/>
<rect x="208" y="143" width="22" height="47" rx="4" fill="#2a6fd6" opacity="0.8500000000000001"/>
<rect x="152" y="294" width="78" height="36" rx="5" fill="#c9783d" opacity=".85"/>
<text x="191.0" y="352" font-size="13" fill="#6f7686" font-weight="500" text-anchor="middle" >Q2</text>
<rect x="254" y="148" width="22" height="42" rx="4" fill="#2a6fd6" opacity="0.55"/>
<rect x="282" y="151" width="22" height="39" rx="4" fill="#2a6fd6" opacity="0.7000000000000001"/>
<rect x="310" y="127" width="22" height="63" rx="4" fill="#2a6fd6" opacity="0.8500000000000001"/>
<rect x="254" y="279" width="78" height="51" rx="5" fill="#c9783d" opacity=".85"/>
<text x="293.0" y="352" font-size="13" fill="#6f7686" font-weight="500" text-anchor="middle" >Q3</text>
<rect x="356" y="134" width="22" height="56" rx="4" fill="#2a6fd6" opacity="0.55"/>
<rect x="384" y="101" width="22" height="89" rx="4" fill="#2a6fd6" opacity="0.7000000000000001"/>
<rect x="412" y="130" width="22" height="60" rx="4" fill="none" stroke="#2a6fd6" stroke-dasharray="4 4"/>
<rect x="356" y="272" width="78" height="58" rx="5" fill="#f6e7da" stroke="#c9783d" stroke-dasharray="5 4"/>
<text x="395.0" y="310" font-size="28" fill="#c9783d" font-weight="700" text-anchor="middle" >?</text>
<text x="395.0" y="352" font-size="13" fill="#6f7686" font-weight="500" text-anchor="middle" >Q4</text>
<line x1="50" y1="190" x2="440" y2="190" stroke="#e4e1d8"/>
<line x1="50" y1="330" x2="440" y2="330" stroke="#e4e1d8"/>
<line x1="415" y1="86" x2="415" y2="334" stroke="#1d2230" stroke-width="1.5" stroke-dasharray="2 4"/>
<text x="415" y="384" font-size="13" fill="#1d2230" font-weight="600" text-anchor="middle" >now</text>
<path d="M450,160 C480,160 470,210 494,210" fill="none" stroke="#6f7686" stroke-width="1.6" marker-end="url(#arr)"/>
<path d="M450,300 C480,300 470,226 494,226" fill="none" stroke="#6f7686" stroke-width="1.6" marker-end="url(#arr)"/>
<text x="500" y="52" font-size="15" fill="#1d2230" font-weight="600" text-anchor="start" >Custom network</text>
<text x="500" y="72" font-size="13" fill="#6f7686" font-weight="400" text-anchor="start" >reads both frequencies at once</text>
<rect x="500" y="193" width="50" height="50" rx="12" fill="#1d2230"/>
<text x="525.0" y="223" font-size="15" fill="#ffffff" font-weight="600" text-anchor="middle" >h<tspan font-size='10' dy='4'>t−3</tspan></text>
<path d="M515,193 C508,168 542,168 535,191" fill="none" stroke="#6f7686" stroke-width="1.4" marker-end="url(#arr)"/>
<line x1="552" y1="218" x2="568" y2="218" stroke="#6f7686" stroke-width="1.6" marker-end="url(#arr)"/>
<rect x="572" y="193" width="50" height="50" rx="12" fill="#1d2230"/>
<text x="597.0" y="223" font-size="15" fill="#ffffff" font-weight="600" text-anchor="middle" >h<tspan font-size='10' dy='4'>t−2</tspan></text>
<path d="M587,193 C580,168 614,168 607,191" fill="none" stroke="#6f7686" stroke-width="1.4" marker-end="url(#arr)"/>
<line x1="624" y1="218" x2="640" y2="218" stroke="#6f7686" stroke-width="1.6" marker-end="url(#arr)"/>
<rect x="644" y="193" width="50" height="50" rx="12" fill="#1d2230"/>
<text x="669.0" y="223" font-size="15" fill="#ffffff" font-weight="600" text-anchor="middle" >h<tspan font-size='10' dy='4'>t−1</tspan></text>
<path d="M659,193 C652,168 686,168 679,191" fill="none" stroke="#6f7686" stroke-width="1.4" marker-end="url(#arr)"/>
<line x1="696" y1="218" x2="712" y2="218" stroke="#6f7686" stroke-width="1.6" marker-end="url(#arr)"/>
<rect x="716" y="193" width="50" height="50" rx="12" fill="#1d2230"/>
<text x="741.0" y="223" font-size="15" fill="#ffffff" font-weight="600" text-anchor="middle" >h<tspan font-size='10' dy='4'>t</tspan></text>
<path d="M731,193 C724,168 758,168 751,191" fill="none" stroke="#6f7686" stroke-width="1.4" marker-end="url(#arr)"/>
<text x="633.0" y="290" font-size="13" fill="#6f7686" font-weight="500" text-anchor="middle" letter-spacing="1.5">LSTM · GRU</text>
<line x1="772" y1="218" x2="828" y2="218" stroke="#6f7686" stroke-width="1.6" marker-end="url(#arr)"/>
<circle cx="890" cy="218" r="56" fill="#e7effb" stroke="#2a6fd6" stroke-width="2"/>
<text x="890" y="212" font-size="15" fill="#1f56a8" font-weight="700" text-anchor="middle" >Nowcast</text>
<text x="890" y="232" font-size="13" fill="#1f56a8" font-weight="500" text-anchor="middle" >Q4 GDP growth</text>
<text x="890" y="52" font-size="15" fill="#1d2230" font-weight="600" text-anchor="middle" >Estimate</text>
<text x="890" y="72" font-size="13" fill="#6f7686" font-weight="400" text-anchor="middle" >before the official figure</text>
</svg>
